<svg version="1.1" id="Layer_1" xmlns="http://www.w3.org/2000/svg" xmlns:xlink="http://www.w3.org/1999/xlink" x="0px" y="0px"
	 width="100%" viewBox="0 0 1200 1200" enable-background="new 0 0 1200 1200" xml:space="preserve">
<path fill="#000000" opacity="1.000000" stroke="none" 
	d="
M785.000000,1201.000000 
	C523.333313,1201.000000 262.166656,1201.000000 1.000000,1201.000000 
	C1.000000,801.000000 1.000000,401.000000 1.000000,1.000000 
	C401.000000,1.000000 801.000000,1.000000 1201.000000,1.000000 
	C1201.000000,401.000000 1201.000000,801.000000 1201.000000,1201.000000 
	C1062.500000,1201.000000 924.000000,1201.000000 785.000000,1201.000000 
M736.028809,538.463928 
	C719.289978,544.004028 703.925232,551.757690 693.184937,566.387451 
	C683.145325,580.062683 678.766907,595.521729 682.242615,612.203430 
	C686.532837,632.794250 699.894714,647.013550 717.797546,656.873901 
	C736.084473,666.945862 755.746948,670.808350 776.790649,669.185425 
	C794.001160,667.858215 809.850891,663.119995 824.207947,653.893860 
	C845.345825,640.310303 856.111755,620.983215 856.073425,595.443542 
	C855.903931,482.455048 856.011353,369.466156 855.958069,256.477417 
	C855.955933,252.064133 855.255493,247.655441 855.019226,243.237198 
	C854.337341,230.487579 842.826538,218.582489 827.679016,219.076920 
	C821.493408,219.278839 815.332825,220.308899 809.165771,221.005661 
	C800.411926,221.994675 791.592773,222.620407 782.926086,224.120667 
	C765.396484,227.155167 747.822205,230.117126 730.499451,234.118088 
	C702.110657,240.674896 673.669983,247.214874 645.700623,255.314285 
	C622.609741,262.000977 600.055481,270.625977 577.478577,278.973938 
	C561.077942,285.038208 544.744263,291.440918 528.900146,298.809631 
	C512.006348,306.666534 502.069977,320.194031 502.047791,339.441162 
	C501.941437,431.765198 502.000000,524.089417 502.000000,616.413574 
	C502.000000,618.151184 502.000000,619.888794 502.000000,622.759521 
	C493.375061,612.703125 483.106384,607.275818 472.162811,603.010498 
	C454.629364,596.176941 436.462646,595.766846 418.053040,597.983887 
	C399.826202,600.178894 383.394287,606.571167 369.144653,618.333618 
	C353.405518,631.325500 345.250458,647.640015 347.008392,668.334351 
	C348.446075,685.258667 355.749054,699.062073 368.624573,710.231567 
	C385.459717,724.836060 405.550629,730.589050 427.080444,731.798645 
	C436.510742,732.328491 446.218140,731.514282 455.529572,729.822937 
	C474.789551,726.324707 491.939758,718.536377 505.326630,703.353088 
	C516.129517,691.100647 520.797302,676.673523 520.858948,661.009644 
	C521.167297,582.685303 521.000122,504.359100 521.000122,426.033569 
	C521.000122,424.209106 521.000122,422.384674 521.000122,420.633270 
	C621.429382,373.731720 726.519836,344.710602 836.654480,334.415924 
	C836.654480,409.280518 836.654480,483.956116 836.654480,559.031677 
	C821.754028,543.613647 803.268433,536.371277 783.147644,534.297058 
	C767.694580,532.704102 751.926880,533.302673 736.028809,538.463928 
M444.074432,829.554199 
	C441.102966,821.371277 435.139740,815.743347 426.745239,815.237793 
	C412.312073,814.368591 397.788666,814.997375 383.211243,814.997375 
	C383.211243,846.875793 383.211243,879.251892 383.211243,911.791992 
	C390.155914,911.791992 396.888031,911.791992 404.004028,911.791992 
	C404.004028,900.186584 404.004028,888.780884 404.004028,877.000000 
	C405.501282,877.000000 406.631622,877.109802 407.733734,876.979858 
	C411.337280,876.555176 413.590790,877.325256 415.006226,881.393372 
	C418.315460,890.904358 422.313263,900.178345 426.157684,909.496582 
	C426.572845,910.502808 427.793701,911.859131 428.673218,911.883545 
	C435.724365,912.078735 442.783295,911.992615 450.482605,911.992615 
	C444.446930,898.055359 438.735718,884.867249 433.634094,873.086914 
	C437.414886,867.803284 441.396912,863.494751 443.908997,858.453674 
	C448.460632,849.319519 447.955627,839.661804 444.074432,829.554199 
M755.000305,860.539734 
	C753.949097,852.818298 751.855103,845.368286 744.819031,841.079407 
	C735.835205,835.603149 726.721008,836.663452 717.706421,842.965393 
	C717.706421,830.968018 717.706421,819.556580 717.706421,808.317444 
	C710.953125,808.317444 704.549194,808.317444 698.283325,808.317444 
	C698.283325,843.015015 698.283325,877.394531 698.283325,911.784180 
	C704.674988,911.784180 710.780762,911.784180 716.869873,911.784180 
	C716.978943,909.857544 717.075806,908.146790 717.200012,905.953796 
	C722.602661,915.585022 743.915100,916.182739 749.812622,905.141602 
	C752.681213,899.771179 754.926147,893.577454 755.475647,887.575439 
	C756.265259,878.950500 755.249329,870.160217 755.000305,860.539734 
M785.631409,838.872559 
	C775.361511,841.310303 769.219177,848.347534 767.227356,858.076355 
	C765.469666,866.661804 764.893921,875.677124 765.230530,884.447510 
	C765.532471,892.313660 767.981018,899.942932 774.205627,905.768311 
	C781.219482,912.332397 789.634521,913.268311 798.685486,913.087219 
	C808.215942,912.896484 816.065308,909.760254 822.155579,902.069580 
	C819.338562,897.999207 816.550232,893.970276 813.698303,889.849487 
	C807.938904,896.095825 798.487854,898.179504 792.118347,895.596436 
	C786.676208,893.389526 785.659119,888.475464 784.979065,882.820435 
	C797.790466,882.820435 810.352051,882.820435 823.460205,882.820435 
	C822.948608,875.216125 823.119263,868.039795 821.845642,861.129639 
	C820.002686,851.130493 815.905640,841.844666 804.839600,839.220093 
	C798.894897,837.810120 792.451843,838.501404 785.631409,838.872559 
M489.626953,896.997375 
	C481.661102,895.898315 477.119232,891.729675 477.262939,882.935547 
	C489.766663,882.935547 502.198517,882.935547 515.412537,882.935547 
	C514.917603,875.024292 515.200317,867.352783 513.720093,860.038025 
	C512.680603,854.901123 509.930359,849.725159 506.718109,845.498352 
	C501.123199,838.136292 492.643555,837.917664 484.081024,837.895020 
	C471.552826,837.861938 462.030090,846.712097 458.963165,858.272644 
	C456.130646,868.949829 456.160675,879.726807 458.132202,890.408386 
	C459.502838,897.834595 463.135193,904.093018 469.861694,908.587036 
	C476.795258,913.219299 484.278229,913.091736 491.942078,912.999878 
	C501.095306,912.890137 508.522705,909.359802 514.127502,902.060242 
	C511.256775,897.875793 508.521729,893.889160 506.671600,891.192322 
	C500.809967,893.292542 495.640900,895.144531 489.626953,896.997375 
M625.498596,883.000427 
	C630.929626,883.000427 636.360657,883.000427 642.472229,883.000427 
	C641.956116,874.685425 641.997314,866.901855 640.848145,859.298096 
	C639.776489,852.207275 636.508911,845.913391 630.199097,841.670288 
	C624.881592,838.094421 618.946167,838.205872 612.862122,837.874390 
	C600.125793,837.180298 590.725342,845.049744 586.916565,856.930054 
	C583.483704,867.637817 585.284058,878.522278 585.319031,889.320251 
	C585.329712,892.612915 587.085449,896.136047 588.768005,899.148071 
	C598.439209,916.461975 621.996704,916.006409 634.986206,908.425293 
	C642.526062,904.024658 642.433350,903.346436 637.563721,896.061707 
	C636.233582,894.071838 634.940002,892.057556 633.641968,890.073242 
	C626.795166,895.528992 619.516235,899.019592 610.880066,895.245911 
	C606.602234,893.376709 604.743713,888.358093 605.585266,883.000427 
	C611.865723,883.000427 618.182434,883.000427 625.498596,883.000427 
M524.657227,839.000000 
	C522.783081,839.000000 520.908936,839.000000 518.710510,839.000000 
	C525.061096,862.462036 531.211609,885.077698 537.276367,907.716248 
	C538.106384,910.814636 539.375793,912.507080 543.023254,912.090393 
	C546.641846,911.677063 550.360596,911.788635 554.005249,912.065979 
	C556.995728,912.293518 558.341064,911.286316 559.073792,908.351624 
	C560.822449,901.347412 562.954773,894.440002 564.857483,887.473145 
	C569.238220,871.432800 573.574463,855.380371 577.970093,839.180542 
	C570.826355,839.180542 564.032043,839.180542 557.087769,839.180542 
	C554.233093,853.396484 551.407349,867.468201 548.416443,882.362732 
	C545.414368,867.491150 542.563293,853.367310 539.663086,839.000000 
	C534.909424,839.000000 530.263062,839.000000 524.657227,839.000000 
M671.995850,910.289124 
	C671.997192,896.813843 671.998718,883.338623 671.999939,869.863342 
	C672.000732,860.959290 674.898438,858.005554 683.639404,858.000244 
	C685.383972,857.999146 687.128540,858.000000 688.681641,858.000000 
	C688.681641,850.918396 688.681641,844.512146 688.681641,838.272705 
	C681.742615,837.109253 675.736938,838.070557 671.196838,844.599792 
	C671.013855,842.065308 670.911072,840.642029 670.810059,839.243530 
	C664.472595,839.243530 658.388489,839.243530 652.202820,839.243530 
	C652.202820,863.527588 652.202820,887.567688 652.202820,912.329529 
	C658.933044,911.962952 665.437500,911.608643 671.995850,910.289124 
M337.999573,982.482788 
	C337.999573,986.247375 337.999573,990.011963 337.999573,994.000000 
	C342.008148,994.000000 345.481171,994.125549 348.939575,993.954773 
	C351.149231,993.845581 353.680908,993.886597 355.472412,992.840210 
	C361.572571,989.277527 361.756042,980.740173 356.080414,974.354797 
	C360.769409,971.367676 359.153168,966.635864 358.622894,962.679993 
	C358.387146,960.921509 355.387543,958.472595 353.401367,958.218018 
	C348.401154,957.577087 343.263855,958.005920 337.999573,958.005920 
	C337.999573,966.230774 337.999573,973.859863 337.999573,982.482788 
M744.999451,985.475159 
	C744.999451,988.255432 744.999451,991.035706 744.999451,993.725220 
	C747.276428,993.725220 749.015015,993.725220 750.999390,993.725220 
	C750.999390,987.809509 750.683228,982.138000 751.173401,976.537048 
	C751.341675,974.614624 753.380249,971.487793 754.820801,971.335449 
	C757.640564,971.037109 759.031738,973.624207 759.009949,976.601562 
	C758.972229,981.767944 758.987793,986.934753 759.019897,992.101196 
	C759.023743,992.719971 759.270264,993.337280 759.432556,994.085510 
	C761.024780,993.961731 762.433777,993.852173 764.000000,993.730408 
	C764.000000,987.552002 763.779602,981.724304 764.051514,975.919739 
	C764.463867,967.116699 759.551392,965.389893 751.439331,967.897583 
	C750.414062,968.214600 749.326294,968.786377 748.332703,968.672302 
	C742.987122,968.058777 737.662231,967.265747 732.260071,966.525024 
	C732.260071,976.281311 732.260071,985.045898 732.260071,993.737061 
	C733.928223,993.737061 735.331848,993.737061 736.999512,993.737061 
	C736.999512,990.669434 736.999390,987.860474 736.999512,985.051514 
	C736.999573,982.218201 737.141541,979.375977 736.962891,976.554016 
	C736.757141,973.304810 738.828979,971.501160 741.325195,971.415161 
	C744.014893,971.322510 745.389954,973.452393 745.058960,976.502380 
	C744.772949,979.137939 744.999451,981.829224 744.999451,985.475159 
M670.992065,973.795227 
	C670.906982,978.276672 669.985474,982.942383 670.923462,987.198364 
	C672.524292,994.462280 675.025330,995.781982 682.005371,994.974426 
	C684.883789,994.641418 687.732910,994.055298 690.647339,993.575684 
	C690.647339,981.112000 690.647339,968.587524 690.647339,956.168823 
	C688.663086,956.168823 687.041199,956.168823 685.000000,956.168823 
	C685.000000,958.119446 685.000000,959.908508 685.000000,961.697632 
	C685.000000,963.678223 685.000000,965.658875 685.000000,967.710266 
	C676.348450,965.712646 674.500122,966.432556 670.992065,973.795227 
M561.000427,979.689087 
	C561.000366,980.354980 560.999878,981.020874 561.000244,981.686768 
	C561.005737,992.605469 565.778931,996.869873 576.290405,994.855652 
	C578.032043,994.521851 579.529480,992.448120 580.883545,990.947205 
	C581.156006,990.645264 580.170837,988.524231 579.928284,988.554321 
	C578.481750,988.733704 577.109131,989.483337 575.661804,989.687500 
	C573.754517,989.956482 571.243408,990.679871 570.001465,989.793457 
	C568.248901,988.542542 567.420654,985.996582 565.507202,982.880493 
	C572.123901,982.880493 577.030945,982.880493 582.403320,982.880493 
	C581.870483,979.765381 581.893188,977.020508 580.883118,974.731323 
	C579.658875,971.957153 577.882019,967.773376 575.774231,967.397766 
	C571.772278,966.684509 566.278442,964.939026 563.733704,970.741638 
	C562.599976,973.327026 561.898315,976.101807 561.000427,979.689087 
M428.057770,993.983826 
	C429.659088,993.983826 431.260437,993.983826 432.723297,993.983826 
	C432.443756,991.400269 432.079041,989.350281 432.029358,987.292786 
	C431.928955,983.135742 432.508728,978.887878 431.820099,974.845703 
	C431.363831,972.167236 429.801666,968.546265 427.673309,967.494080 
	C421.123322,964.256226 415.494293,967.424866 413.621399,975.385193 
	C415.999237,974.712158 418.334564,973.813843 420.120239,972.276917 
	C422.747192,970.015686 424.500671,971.017700 425.927521,973.333252 
	C426.644531,974.496826 426.733978,976.047058 427.263885,978.000000 
	C424.785431,978.000000 422.675812,977.911499 420.575989,978.017456 
	C415.395477,978.278809 412.809967,981.684570 413.000000,987.866272 
	C413.160522,993.088013 415.217102,995.123413 420.620087,994.944824 
	C422.840332,994.871521 425.040344,994.188049 428.057770,993.983826 
M495.031677,990.546448 
	C491.829285,989.105164 490.523407,986.727905 491.225220,982.999756 
	C493.741547,982.999756 496.051636,982.999817 498.361725,982.999817 
	C500.808594,982.999817 503.255463,982.999756 505.998901,982.999756 
	C505.998901,980.766663 506.199799,978.948547 505.959381,977.190735 
	C505.357117,972.787292 504.387543,968.242188 499.282349,967.090881 
	C493.353394,965.753784 487.550812,968.383545 486.502960,973.174988 
	C485.604950,977.281494 485.903595,981.703003 486.058929,985.971130 
	C486.206635,990.029114 487.587158,994.273315 492.026642,994.759583 
	C496.888733,995.292053 502.663391,996.741211 506.067474,991.004211 
	C504.575653,988.144226 502.824219,987.452515 500.139832,989.302795 
	C498.879211,990.171753 497.197144,990.429382 495.031677,990.546448 
M666.000122,975.875732 
	C665.568848,972.016113 664.402649,968.440735 660.321289,967.175537 
	C652.744873,964.826782 646.657227,969.196106 646.021973,977.228760 
	C645.878479,979.043823 645.999512,980.879761 646.000244,982.706116 
	C646.004272,992.571167 651.012756,996.883545 660.643921,994.877930 
	C662.725647,994.444397 664.509338,992.579529 666.711609,991.197449 
	C665.076355,989.636475 664.143677,988.746216 663.249268,987.892395 
	C656.197815,992.849854 653.141663,991.592102 651.255432,982.917236 
	C656.085815,982.917236 660.854614,982.917236 666.000000,982.917236 
	C666.000000,980.670288 666.000000,978.724365 666.000122,975.875732 
M636.016907,994.998840 
	C638.165649,993.885071 640.314453,992.771301 642.458191,991.660156 
	C641.089294,989.792786 640.315796,988.737610 639.603577,987.765991 
	C632.160278,992.653931 629.400879,991.564331 627.128662,982.851440 
	C632.130188,982.851440 637.013489,982.851440 641.999756,982.851440 
	C641.999756,980.053284 642.632080,977.490479 641.849670,975.477356 
	C640.710266,972.545715 639.134949,968.713989 636.689697,967.614746 
	C633.192688,966.042603 628.235657,965.638855 625.310059,969.360840 
	C620.448059,975.546265 620.973572,982.902588 623.166443,989.795105 
	C624.930115,995.338501 630.254456,995.283997 636.016907,994.998840 
M373.737976,967.000000 
	C372.009094,967.660889 370.017487,967.974304 368.599548,969.046448 
	C363.962402,972.552612 365.298096,977.807922 364.968811,982.608337 
	C364.268250,992.820190 369.707855,996.336182 379.419220,994.872986 
	C381.530609,994.554810 383.410583,992.701111 385.836517,991.301025 
	C384.082306,989.699951 383.039215,988.747925 381.996124,987.795898 
	C381.945953,988.366638 381.895782,988.937317 381.845612,989.508057 
	C378.948639,989.675781 375.763306,990.644165 373.252350,989.739990 
	C371.469513,989.098022 370.596436,985.929443 368.677155,982.867188 
	C375.246033,982.867188 380.003052,982.867188 384.697235,982.867188 
	C386.065247,970.539368 381.858551,965.683838 373.737976,967.000000 
M776.002869,980.406738 
	C776.002869,975.978027 776.002869,971.549255 776.002869,966.932617 
	C773.672180,967.045105 771.933472,967.129028 770.000366,967.222351 
	C770.000366,972.722412 770.000305,977.855591 770.000366,982.988708 
	C770.000366,983.819580 769.955139,984.653381 770.007874,985.480957 
	C770.513672,993.422607 774.135681,996.351562 781.789856,994.967712 
	C784.132446,994.544067 786.451416,993.989990 788.750366,993.502197 
	C788.750366,984.693298 788.750366,975.956055 788.750366,967.242920 
	C787.096191,967.242920 785.695251,967.242920 783.999878,967.242920 
	C783.999878,973.268860 783.771301,979.070312 784.077698,984.843323 
	C784.293579,988.910217 781.659546,990.100708 778.770813,990.353333 
	C777.999023,990.420898 776.718567,987.184937 776.077087,985.325745 
	C775.667297,984.137939 776.001953,982.693359 776.002869,980.406738 
M610.997192,978.731934 
	C610.997192,983.807251 610.997192,988.882568 610.997192,993.849487 
	C613.304749,993.849487 614.929016,993.849487 616.988586,993.849487 
	C616.988586,987.273193 617.412537,980.797058 616.807434,974.418640 
	C616.510742,971.291199 615.848022,967.051941 610.910034,967.009399 
	C606.686951,966.973022 602.463318,967.001892 598.223694,967.001892 
	C598.223694,976.227417 598.223694,984.968994 598.223694,993.791138 
	C599.848999,993.791138 601.248840,993.791138 602.999634,993.791138 
	C602.999634,988.474060 603.085388,983.353882 602.970032,978.238281 
	C602.890625,974.714966 604.281128,971.493896 607.637085,971.412170 
	C611.166382,971.326172 611.239624,974.900085 610.997192,978.731934 
M811.446533,975.995483 
	C811.960754,975.529846 812.860535,975.115234 812.930054,974.590698 
	C813.668396,969.018921 809.881409,966.378113 802.246338,966.993286 
	C798.307251,967.310669 795.400574,969.686523 795.287231,973.202393 
	C795.204895,975.756592 797.197083,978.782410 799.075806,980.866333 
	C800.562805,982.515625 803.621216,982.672913 805.346497,984.207275 
	C806.681580,985.394592 807.033386,987.687622 807.822266,989.489136 
	C805.635437,989.553711 803.365967,989.982483 801.300049,989.513916 
	C800.399963,989.309753 799.917419,987.264526 799.290710,986.137085 
	C797.598877,986.137085 795.963440,986.137085 794.298157,986.137085 
	C796.202759,994.651428 799.071716,995.343933 806.330200,995.113037 
	C810.123169,994.992371 812.526611,993.271606 813.177734,990.121887 
	C813.662415,987.777466 813.203064,984.525696 811.819519,982.693359 
	C810.204468,980.554626 806.994019,979.692566 804.731934,977.945007 
	C803.253357,976.802734 802.094604,975.150452 801.141296,973.522400 
	C800.989563,973.263123 803.141296,971.070618 803.436646,971.230896 
	C805.093689,972.129761 806.471924,973.525635 808.020386,974.648499 
	C808.796936,975.211731 809.732361,975.555847 811.446533,975.995483 
M472.953979,971.443237 
	C475.417480,973.171814 476.368561,977.931580 480.943054,975.429443 
	C480.398499,968.038452 474.510651,964.132874 467.739227,967.287903 
	C465.641174,968.265503 463.832397,971.213318 463.184296,973.608948 
	C462.390259,976.544189 462.929382,979.778198 466.619812,981.274658 
	C468.845154,982.176941 471.027557,983.286743 473.024902,984.611450 
	C474.214508,985.400452 475.008148,986.786560 475.979767,987.904236 
	C474.926056,988.814514 473.956177,990.312805 472.796265,990.478210 
	C471.500427,990.663025 469.215637,990.011780 468.786041,989.072632 
	C467.262421,985.741943 465.052521,985.421204 462.070099,986.406738 
	C462.523590,993.413086 465.660187,995.513733 474.454529,995.017761 
	C478.538422,994.787354 480.458710,992.665649 481.040924,988.694580 
	C482.083496,981.583557 476.477844,980.379456 472.036591,977.940308 
	C470.499756,977.096252 469.341583,975.562744 468.010498,974.344116 
	C469.441681,973.241943 470.872894,972.139771 472.953979,971.443237 
M697.990051,992.478394 
	C701.027954,993.318909 704.033569,994.312195 707.111694,994.962036 
	C711.111328,995.806335 713.594543,993.005188 714.737610,990.084473 
	C715.830017,987.292969 715.588074,983.758301 712.259949,981.771240 
	C709.502686,980.125000 706.514587,978.802795 703.985046,976.870728 
	C703.066772,976.169373 703.180298,974.117310 702.822998,972.681519 
	C704.346191,972.413635 706.161377,971.518860 707.310547,972.054016 
	C708.462769,972.590637 708.950562,974.553894 709.818481,976.044678 
	C711.475586,975.967957 713.210388,975.887573 715.373718,975.787415 
	C714.833862,974.376587 714.476562,973.505737 714.165161,972.618713 
	C712.369690,967.504639 710.388672,966.548950 703.380676,966.965393 
	C699.957520,967.168762 697.665955,968.912231 697.118286,972.024719 
	C696.348328,976.400452 696.609863,980.630066 702.228027,982.078735 
	C703.901062,982.510132 705.575012,983.422913 706.910461,984.524902 
	C707.980591,985.407898 709.148682,986.921204 709.128418,988.135498 
	C709.112610,989.076782 707.308167,990.758423 706.334290,990.733398 
	C704.864441,990.695679 703.364502,989.556213 701.988831,988.704712 
	C700.283264,987.648987 698.691589,986.409119 697.050781,985.248718 
	C696.579346,985.703369 696.107849,986.158020 695.636414,986.612671 
	C696.223267,988.380493 696.810120,990.148315 697.990051,992.478394 
M442.999878,984.019348 
	C442.999878,978.415527 442.999878,972.811768 442.999878,967.247559 
	C441.090240,967.247559 439.688904,967.247559 438.000244,967.247559 
	C438.000244,974.113281 437.600128,980.768127 438.115204,987.351318 
	C438.609406,993.667908 441.383240,995.630554 446.336670,994.997986 
	C449.837250,994.551025 453.335510,994.085693 456.733307,993.641785 
	C456.733307,984.650879 456.733307,975.911011 456.733307,967.266602 
	C455.048920,967.266602 453.654053,967.266602 452.000031,967.266602 
	C452.000031,972.824829 452.007172,978.121582 451.997375,983.418274 
	C451.991364,986.673401 451.706299,989.816711 447.462402,990.164124 
	C443.632599,990.477600 443.935486,987.131287 442.999878,984.019348 
M842.458191,971.976868 
	C844.672668,973.887268 844.855591,979.098328 849.834656,976.516907 
	C849.613770,969.285950 847.117432,966.981384 839.526367,967.000183 
	C833.910095,967.014099 830.101196,970.732239 830.009827,976.365234 
	C829.955811,979.691895 829.890564,983.024597 830.024536,986.346802 
	C830.259583,992.174133 834.867615,995.385925 842.235962,994.999817 
	C846.906738,994.755066 849.858154,990.923035 849.672424,985.328369 
	C847.040649,984.455872 845.469360,984.732849 844.298218,987.920776 
	C843.520020,990.039124 841.259094,992.325989 837.971558,990.036560 
	C833.276062,986.766724 835.107239,981.980896 835.207947,977.849426 
	C835.258606,975.771118 837.328857,973.618408 838.822388,971.771423 
	C839.291199,971.191772 840.856445,971.498657 842.458191,971.976868 
M403.090149,974.579529 
	C404.816864,975.597900 406.543579,976.616272 408.270294,977.634644 
	C408.603302,972.351196 407.598175,968.581665 403.295776,967.166565 
	C398.425659,965.564758 391.303101,967.359863 390.514038,971.474731 
	C389.327118,977.664673 389.372009,984.414917 390.542542,990.615662 
	C391.289703,994.573669 399.430176,996.815063 403.344147,994.748779 
	C406.854034,992.895752 409.484406,989.860291 408.881470,985.186646 
	C406.358002,985.017212 404.127594,984.006592 403.519531,987.754028 
	C403.311066,989.038940 400.145142,991.106812 399.103333,990.722351 
	C397.131256,989.994629 394.731873,987.981628 394.291107,986.088074 
	C393.521820,982.782959 393.596375,979.054749 394.317749,975.720398 
	C394.705933,973.926147 396.951233,972.094727 398.801208,971.253967 
	C399.637146,970.874146 401.552307,972.869263 403.090149,974.579529 
M550.780334,956.023376 
	C549.473206,959.346741 548.166138,962.670166 546.471558,966.978821 
	C546.410278,967.026123 545.208069,967.954224 544.005859,968.882324 
	C545.221130,969.972351 546.436462,971.062378 548.187378,972.632812 
	C548.187378,979.125366 548.187378,986.414307 548.187378,993.792175 
	C549.841553,993.792175 551.244080,993.792175 553.024963,993.792175 
	C553.024963,986.162842 553.024963,978.729187 553.024963,970.958008 
	C554.821838,970.958008 556.241211,970.958008 557.815063,970.958008 
	C557.815063,969.529175 557.815063,968.451660 557.815063,967.285767 
	C556.106323,967.048645 554.560303,966.834106 553.058533,966.625732 
	C553.104675,960.356262 554.005554,959.316528 559.043762,959.759033 
	C558.944397,958.163513 558.847839,956.613525 558.719421,954.551025 
	C556.030457,955.054260 553.825500,955.466980 550.780334,956.023376 
M521.997925,987.416931 
	C521.997925,989.524658 521.997925,991.632385 521.997925,993.776550 
	C524.211792,993.776550 525.944458,993.776550 527.680786,993.776550 
	C527.680786,981.058350 527.680786,968.565063 527.680786,955.917542 
	C525.615356,956.034668 523.879211,956.133179 521.997925,956.239868 
	C521.997925,966.572571 521.997925,976.502380 521.997925,987.416931 
M539.999512,979.505798 
	C539.999512,975.416199 539.999512,971.326538 539.999512,967.225464 
	C537.780273,967.225464 536.050720,967.225464 534.320679,967.225464 
	C534.320679,976.280151 534.320679,985.107056 534.320679,994.085571 
	C536.386963,993.966248 538.119812,993.866150 539.999512,993.757629 
	C539.999512,989.072144 539.999512,984.786072 539.999512,979.505798 
M819.000488,986.432007 
	C819.000488,988.866760 819.000488,991.301453 819.000488,993.782654 
	C821.205688,993.782654 822.935242,993.782654 824.686707,993.782654 
	C824.686707,984.731445 824.686707,975.899658 824.686707,966.916626 
	C822.626221,967.034729 820.891479,967.134216 819.000488,967.242676 
	C819.000488,973.571899 819.000488,979.511841 819.000488,986.432007 
M860.934448,993.432129 
	C860.796021,991.182312 862.021851,987.734070 858.069946,988.232971 
	C856.602966,988.418213 855.465149,991.211243 854.177246,992.815063 
	C854.580322,993.195923 854.983398,993.576843 855.386475,993.957703 
	C856.995544,993.957703 858.604675,993.957703 860.934448,993.432129 
M823.028931,961.978455 
	C823.454346,960.587769 824.482056,959.001099 824.113525,957.868835 
	C823.821838,956.972778 821.816528,956.634460 820.572266,956.048462 
	C820.048523,957.308777 818.955322,958.684204 819.179565,959.793213 
	C819.361694,960.694031 821.124573,961.275269 823.028931,961.978455 
M536.841553,956.027527 
	C535.954346,957.553040 535.067139,959.078491 534.179932,960.604065 
	C535.984619,961.179138 537.789368,961.754272 539.594055,962.329346 
	C540.001404,961.838501 540.408691,961.347656 540.816040,960.856750 
	C539.764099,959.239746 538.712158,957.622742 536.841553,956.027527 
z"/>
<path fill="#EAF3DF" opacity="1.000000" stroke="none" 
	d="
M736.386108,538.251221 
	C751.926880,533.302673 767.694580,532.704102 783.147644,534.297058 
	C803.268433,536.371277 821.754028,543.613647 836.654480,559.031677 
	C836.654480,483.956116 836.654480,409.280518 836.654480,334.415924 
	C726.519836,344.710602 621.429382,373.731720 521.000122,420.633270 
	C521.000122,422.384674 521.000122,424.209106 521.000122,426.033569 
	C521.000122,504.359100 521.167297,582.685303 520.858948,661.009644 
	C520.797302,676.673523 516.129517,691.100647 505.326630,703.353088 
	C491.939758,718.536377 474.789551,726.324707 455.529572,729.822937 
	C446.218140,731.514282 436.510742,732.328491 427.080444,731.798645 
	C405.550629,730.589050 385.459717,724.836060 368.624573,710.231567 
	C355.749054,699.062073 348.446075,685.258667 347.008392,668.334351 
	C345.250458,647.640015 353.405518,631.325500 369.144653,618.333618 
	C383.394287,606.571167 399.826202,600.178894 418.053040,597.983887 
	C436.462646,595.766846 454.629364,596.176941 472.162811,603.010498 
	C483.106384,607.275818 493.375061,612.703125 502.000000,622.759521 
	C502.000000,619.888794 502.000000,618.151184 502.000000,616.413574 
	C502.000000,524.089417 501.941437,431.765198 502.047791,339.441162 
	C502.069977,320.194031 512.006348,306.666534 528.900146,298.809631 
	C544.744263,291.440918 561.077942,285.038208 577.478577,278.973938 
	C600.055481,270.625977 622.609741,262.000977 645.700623,255.314285 
	C673.669983,247.214874 702.110657,240.674896 730.499451,234.118088 
	C747.822205,230.117126 765.396484,227.155167 782.926086,224.120667 
	C791.592773,222.620407 800.411926,221.994675 809.165771,221.005661 
	C815.332825,220.308899 821.493408,219.278839 827.679016,219.076920 
	C842.826538,218.582489 854.337341,230.487579 855.019226,243.237198 
	C855.255493,247.655441 855.955933,252.064133 855.958069,256.477417 
	C856.011353,369.466156 855.903931,482.455048 856.073425,595.443542 
	C856.111755,620.983215 845.345825,640.310303 824.207947,653.893860 
	C809.850891,663.119995 794.001160,667.858215 776.790649,669.185425 
	C755.746948,670.808350 736.084473,666.945862 717.797546,656.873901 
	C699.894714,647.013550 686.532837,632.794250 682.242615,612.203430 
	C678.766907,595.521729 683.145325,580.062683 693.184937,566.387451 
	C703.925232,551.757690 719.289978,544.004028 736.386108,538.251221 
z"/>
<path fill="#FBFBFB" opacity="1.000000" stroke="none" 
	d="
M444.359650,829.837280 
	C447.955627,839.661804 448.460632,849.319519 443.908997,858.453674 
	C441.396912,863.494751 437.414886,867.803284 433.634094,873.086914 
	C438.735718,884.867249 444.446930,898.055359 450.482605,911.992615 
	C442.783295,911.992615 435.724365,912.078735 428.673218,911.883545 
	C427.793701,911.859131 426.572845,910.502808 426.157684,909.496582 
	C422.313263,900.178345 418.315460,890.904358 415.006226,881.393372 
	C413.590790,877.325256 411.337280,876.555176 407.733734,876.979858 
	C406.631622,877.109802 405.501282,877.000000 404.004028,877.000000 
	C404.004028,888.780884 404.004028,900.186584 404.004028,911.791992 
	C396.888031,911.791992 390.155914,911.791992 383.211243,911.791992 
	C383.211243,879.251892 383.211243,846.875793 383.211243,814.997375 
	C397.788666,814.997375 412.312073,814.368591 426.745239,815.237793 
	C435.139740,815.743347 441.102966,821.371277 444.359650,829.837280 
M418.898956,858.987244 
	C421.127319,855.969727 424.175537,853.254517 425.421722,849.874878 
	C428.477600,841.587769 424.013184,832.106506 416.887726,831.120789 
	C412.725189,830.544922 408.417816,831.015869 404.257477,831.015869 
	C404.257477,840.985535 404.257477,850.363342 404.257477,860.376282 
	C409.065216,859.896667 413.562958,859.447998 418.898956,858.987244 
z"/>
<path fill="#FBFBFB" opacity="1.000000" stroke="none" 
	d="
M755.002197,860.990112 
	C755.249329,870.160217 756.265259,878.950500 755.475647,887.575439 
	C754.926147,893.577454 752.681213,899.771179 749.812622,905.141602 
	C743.915100,916.182739 722.602661,915.585022 717.200012,905.953796 
	C717.075806,908.146790 716.978943,909.857544 716.869873,911.784180 
	C710.780762,911.784180 704.674988,911.784180 698.283325,911.784180 
	C698.283325,877.394531 698.283325,843.015015 698.283325,808.317444 
	C704.549194,808.317444 710.953125,808.317444 717.706421,808.317444 
	C717.706421,819.556580 717.706421,830.968018 717.706421,842.965393 
	C726.721008,836.663452 735.835205,835.603149 744.819031,841.079407 
	C751.855103,845.368286 753.949097,852.818298 755.002197,860.990112 
M718.000000,863.819214 
	C718.000061,872.316101 717.930420,880.813782 718.030212,889.309509 
	C718.078796,893.442200 721.337708,897.145264 725.875122,896.707275 
	C728.911194,896.414185 734.061035,893.793762 734.214661,891.888367 
	C735.062256,881.369873 735.191833,870.712402 734.421936,860.186401 
	C734.133301,856.240356 730.079346,854.052734 725.300964,854.852844 
	C720.538391,855.650330 717.908142,857.929443 718.000000,863.819214 
z"/>
<path fill="#FBFBFB" opacity="1.000000" stroke="none" 
	d="
M785.932495,838.558533 
	C792.451843,838.501404 798.894897,837.810120 804.839600,839.220093 
	C815.905640,841.844666 820.002686,851.130493 821.845642,861.129639 
	C823.119263,868.039795 822.948608,875.216125 823.460205,882.820435 
	C810.352051,882.820435 797.790466,882.820435 784.979065,882.820435 
	C785.659119,888.475464 786.676208,893.389526 792.118347,895.596436 
	C798.487854,898.179504 807.938904,896.095825 813.698303,889.849487 
	C816.550232,893.970276 819.338562,897.999207 822.155579,902.069580 
	C816.065308,909.760254 808.215942,912.896484 798.685486,913.087219 
	C789.634521,913.268311 781.219482,912.332397 774.205627,905.768311 
	C767.981018,899.942932 765.532471,892.313660 765.230530,884.447510 
	C764.893921,875.677124 765.469666,866.661804 767.227356,858.076355 
	C769.219177,848.347534 775.361511,841.310303 785.932495,838.558533 
M801.230164,868.997009 
	C801.819031,866.939209 803.211365,864.713318 802.823547,862.859863 
	C802.096069,859.383118 801.102051,855.825806 796.497070,854.723328 
	C793.015930,853.890076 790.060425,854.523804 788.540283,857.186401 
	C786.592651,860.597839 785.747864,864.638855 784.220886,868.999878 
	C790.377502,868.999878 795.329346,868.999878 801.230164,868.997009 
z"/>
<path fill="#FBFBFB" opacity="1.000000" stroke="none" 
	d="
M490.049377,896.996948 
	C495.640900,895.144531 500.809967,893.292542 506.671600,891.192322 
	C508.521729,893.889160 511.256775,897.875793 514.127502,902.060242 
	C508.522705,909.359802 501.095306,912.890137 491.942078,912.999878 
	C484.278229,913.091736 476.795258,913.219299 469.861694,908.587036 
	C463.135193,904.093018 459.502838,897.834595 458.132202,890.408386 
	C456.160675,879.726807 456.130646,868.949829 458.963165,858.272644 
	C462.030090,846.712097 471.552826,837.861938 484.081024,837.895020 
	C492.643555,837.917664 501.123199,838.136292 506.718109,845.498352 
	C509.930359,849.725159 512.680603,854.901123 513.720093,860.038025 
	C515.200317,867.352783 514.917603,875.024292 515.412537,882.935547 
	C502.198517,882.935547 489.766663,882.935547 477.262939,882.935547 
	C477.119232,891.729675 481.661102,895.898315 490.049377,896.996948 
M480.445709,857.034729 
	C479.095062,860.818115 477.744415,864.601440 476.244690,868.802429 
	C483.139099,868.802429 488.892395,868.802429 494.724518,868.802429 
	C495.654053,863.500671 495.007568,858.554504 490.664429,855.449402 
	C487.744843,853.362122 483.958893,853.550293 480.445709,857.034729 
z"/>
<path fill="#FBFBFB" opacity="1.000000" stroke="none" 
	d="
M624.998901,883.000427 
	C618.182434,883.000427 611.865723,883.000427 605.585266,883.000427 
	C604.743713,888.358093 606.602234,893.376709 610.880066,895.245911 
	C619.516235,899.019592 626.795166,895.528992 633.641968,890.073242 
	C634.940002,892.057556 636.233582,894.071838 637.563721,896.061707 
	C642.433350,903.346436 642.526062,904.024658 634.986206,908.425293 
	C621.996704,916.006409 598.439209,916.461975 588.768005,899.148071 
	C587.085449,896.136047 585.329712,892.612915 585.319031,889.320251 
	C585.284058,878.522278 583.483704,867.637817 586.916565,856.930054 
	C590.725342,845.049744 600.125793,837.180298 612.862122,837.874390 
	C618.946167,838.205872 624.881592,838.094421 630.199097,841.670288 
	C636.508911,845.913391 639.776489,852.207275 640.848145,859.298096 
	C641.997314,866.901855 641.956116,874.685425 642.472229,883.000427 
	C636.360657,883.000427 630.929626,883.000427 624.998901,883.000427 
M613.653992,854.037476 
	C606.037292,857.225952 604.178589,860.600098 605.554871,868.800171 
	C611.284363,868.800171 617.019287,868.800171 622.740234,868.800171 
	C623.233337,860.611267 621.040100,856.757568 613.653992,854.037476 
z"/>
<path fill="#FBFBFB" opacity="1.000000" stroke="none" 
	d="
M525.136963,839.000000 
	C530.263062,839.000000 534.909424,839.000000 539.663086,839.000000 
	C542.563293,853.367310 545.414368,867.491150 548.416443,882.362732 
	C551.407349,867.468201 554.233093,853.396484 557.087769,839.180542 
	C564.032043,839.180542 570.826355,839.180542 577.970093,839.180542 
	C573.574463,855.380371 569.238220,871.432800 564.857483,887.473145 
	C562.954773,894.440002 560.822449,901.347412 559.073792,908.351624 
	C558.341064,911.286316 556.995728,912.293518 554.005249,912.065979 
	C550.360596,911.788635 546.641846,911.677063 543.023254,912.090393 
	C539.375793,912.507080 538.106384,910.814636 537.276367,907.716248 
	C531.211609,885.077698 525.061096,862.462036 518.710510,839.000000 
	C520.908936,839.000000 522.783081,839.000000 525.136963,839.000000 
z"/>
<path fill="#FBFBFB" opacity="1.000000" stroke="none" 
	d="
M671.968872,910.771729 
	C665.437500,911.608643 658.933044,911.962952 652.202820,912.329529 
	C652.202820,887.567688 652.202820,863.527588 652.202820,839.243530 
	C658.388489,839.243530 664.472595,839.243530 670.810059,839.243530 
	C670.911072,840.642029 671.013855,842.065308 671.196838,844.599792 
	C675.736938,838.070557 681.742615,837.109253 688.681641,838.272705 
	C688.681641,844.512146 688.681641,850.918396 688.681641,858.000000 
	C687.128540,858.000000 685.383972,857.999146 683.639404,858.000244 
	C674.898438,858.005554 672.000732,860.959290 671.999939,869.863342 
	C671.998718,883.338623 671.997192,896.813843 671.968872,910.771729 
z"/>
<path fill="#FBFBFB" opacity="1.000000" stroke="none" 
	d="
M337.999573,981.985901 
	C337.999573,973.859863 337.999573,966.230774 337.999573,958.005920 
	C343.263855,958.005920 348.401154,957.577087 353.401367,958.218018 
	C355.387543,958.472595 358.387146,960.921509 358.622894,962.679993 
	C359.153168,966.635864 360.769409,971.367676 356.080414,974.354797 
	C361.756042,980.740173 361.572571,989.277527 355.472412,992.840210 
	C353.680908,993.886597 351.149231,993.845581 348.939575,993.954773 
	C345.481171,994.125549 342.008148,994.000000 337.999573,994.000000 
	C337.999573,990.011963 337.999573,986.247375 337.999573,981.985901 
M343.999298,980.653931 
	C343.999298,983.745667 343.999298,986.837402 343.999298,989.903625 
	C352.721130,990.117493 357.205353,985.511353 353.743225,980.030151 
	C352.574158,978.179077 348.855133,977.800354 346.203278,977.148010 
	C345.708832,977.026428 344.746094,978.808472 343.999298,980.653931 
M349.754456,962.231750 
	C347.982880,962.144409 346.211304,962.057068 344.228516,961.959290 
	C344.228516,965.772217 344.228516,969.319214 344.228516,972.923706 
	C348.510193,973.208191 352.507355,972.672729 353.685822,968.245850 
	C354.059052,966.843811 351.530182,964.669128 349.754456,962.231750 
z"/>
<path fill="#FBFBFB" opacity="1.000000" stroke="none" 
	d="
M744.999451,984.985474 
	C744.999451,981.829224 744.772949,979.137939 745.058960,976.502380 
	C745.389954,973.452393 744.014893,971.322510 741.325195,971.415161 
	C738.828979,971.501160 736.757141,973.304810 736.962891,976.554016 
	C737.141541,979.375977 736.999573,982.218201 736.999512,985.051514 
	C736.999390,987.860474 736.999512,990.669434 736.999512,993.737061 
	C735.331848,993.737061 733.928223,993.737061 732.260071,993.737061 
	C732.260071,985.045898 732.260071,976.281311 732.260071,966.525024 
	C737.662231,967.265747 742.987122,968.058777 748.332703,968.672302 
	C749.326294,968.786377 750.414062,968.214600 751.439331,967.897583 
	C759.551392,965.389893 764.463867,967.116699 764.051514,975.919739 
	C763.779602,981.724304 764.000000,987.552002 764.000000,993.730408 
	C762.433777,993.852173 761.024780,993.961731 759.432556,994.085510 
	C759.270264,993.337280 759.023743,992.719971 759.019897,992.101196 
	C758.987793,986.934753 758.972229,981.767944 759.009949,976.601562 
	C759.031738,973.624207 757.640564,971.037109 754.820801,971.335449 
	C753.380249,971.487793 751.341675,974.614624 751.173401,976.537048 
	C750.683228,982.138000 750.999390,987.809509 750.999390,993.725220 
	C749.015015,993.725220 747.276428,993.725220 744.999451,993.725220 
	C744.999451,991.035706 744.999451,988.255432 744.999451,984.985474 
z"/>
<path fill="#FBFBFB" opacity="1.000000" stroke="none" 
	d="
M671.005859,973.377319 
	C674.500122,966.432556 676.348450,965.712646 685.000000,967.710266 
	C685.000000,965.658875 685.000000,963.678223 685.000000,961.697632 
	C685.000000,959.908508 685.000000,958.119446 685.000000,956.168823 
	C687.041199,956.168823 688.663086,956.168823 690.647339,956.168823 
	C690.647339,968.587524 690.647339,981.112000 690.647339,993.575684 
	C687.732910,994.055298 684.883789,994.641418 682.005371,994.974426 
	C675.025330,995.781982 672.524292,994.462280 670.923462,987.198364 
	C669.985474,982.942383 670.906982,978.276672 671.005859,973.377319 
M675.999573,985.909668 
	C676.548279,988.972168 678.080811,990.655823 681.481689,990.202881 
	C684.772461,989.764526 685.012878,987.491089 685.002625,984.940796 
	C684.990662,981.941711 685.518860,978.812073 684.811462,975.990112 
	C684.354675,974.168091 682.099915,972.796814 680.650879,971.223511 
	C679.100708,972.828186 676.713928,974.203979 676.197449,976.091431 
	C675.434021,978.881775 675.999451,982.035767 675.999573,985.909668 
z"/>
<path fill="#FBFBFB" opacity="1.000000" stroke="none" 
	d="
M561.000488,979.239868 
	C561.898315,976.101807 562.599976,973.327026 563.733704,970.741638 
	C566.278442,964.939026 571.772278,966.684509 575.774231,967.397766 
	C577.882019,967.773376 579.658875,971.957153 580.883118,974.731323 
	C581.893188,977.020508 581.870483,979.765381 582.403320,982.880493 
	C577.030945,982.880493 572.123901,982.880493 565.507202,982.880493 
	C567.420654,985.996582 568.248901,988.542542 570.001465,989.793457 
	C571.243408,990.679871 573.754517,989.956482 575.661804,989.687500 
	C577.109131,989.483337 578.481750,988.733704 579.928284,988.554321 
	C580.170837,988.524231 581.156006,990.645264 580.883545,990.947205 
	C579.529480,992.448120 578.032043,994.521851 576.290405,994.855652 
	C565.778931,996.869873 561.005737,992.605469 561.000244,981.686768 
	C560.999878,981.020874 561.000366,980.354980 561.000488,979.239868 
M567.811462,973.755188 
	C567.481567,975.386230 567.151672,977.017212 566.790283,978.803955 
	C570.231506,978.803955 573.013245,978.803955 577.299988,978.803955 
	C575.513916,975.798401 574.448669,973.386108 572.746155,971.571655 
	C572.314392,971.111511 569.853638,972.555054 567.811462,973.755188 
z"/>
<path fill="#FBFBFB" opacity="1.000000" stroke="none" 
	d="
M427.653687,993.882996 
	C425.040344,994.188049 422.840332,994.871521 420.620087,994.944824 
	C415.217102,995.123413 413.160522,993.088013 413.000000,987.866272 
	C412.809967,981.684570 415.395477,978.278809 420.575989,978.017456 
	C422.675812,977.911499 424.785431,978.000000 427.263885,978.000000 
	C426.733978,976.047058 426.644531,974.496826 425.927521,973.333252 
	C424.500671,971.017700 422.747192,970.015686 420.120239,972.276917 
	C418.334564,973.813843 415.999237,974.712158 413.621399,975.385193 
	C415.494293,967.424866 421.123322,964.256226 427.673309,967.494080 
	C429.801666,968.546265 431.363831,972.167236 431.820099,974.845703 
	C432.508728,978.887878 431.928955,983.135742 432.029358,987.292786 
	C432.079041,989.350281 432.443756,991.400269 432.723297,993.983826 
	C431.260437,993.983826 429.659088,993.983826 427.653687,993.882996 
M426.943237,982.637634 
	C425.373749,982.429626 423.209808,981.483643 422.359497,982.168518 
	C420.630829,983.560913 418.438782,985.908020 418.553314,987.728577 
	C418.767120,991.128052 422.651794,990.699097 424.199677,989.637268 
	C425.787323,988.548157 426.116302,985.624207 426.943237,982.637634 
z"/>
<path fill="#FBFBFB" opacity="1.000000" stroke="none" 
	d="
M495.368896,990.755249 
	C497.197144,990.429382 498.879211,990.171753 500.139832,989.302795 
	C502.824219,987.452515 504.575653,988.144226 506.067474,991.004211 
	C502.663391,996.741211 496.888733,995.292053 492.026642,994.759583 
	C487.587158,994.273315 486.206635,990.029114 486.058929,985.971130 
	C485.903595,981.703003 485.604950,977.281494 486.502960,973.174988 
	C487.550812,968.383545 493.353394,965.753784 499.282349,967.090881 
	C504.387543,968.242188 505.357117,972.787292 505.959381,977.190735 
	C506.199799,978.948547 505.998901,980.766663 505.998901,982.999756 
	C503.255463,982.999756 500.808594,982.999817 498.361725,982.999817 
	C496.051636,982.999817 493.741547,982.999756 491.225220,982.999756 
	C490.523407,986.727905 491.829285,989.105164 495.368896,990.755249 
M497.768372,971.977783 
	C493.127258,970.729004 490.743408,973.378296 491.602692,978.775757 
	C494.360260,978.775757 497.107117,978.775757 500.549988,978.775757 
	C499.812927,976.286682 499.194000,974.196411 497.768372,971.977783 
z"/>
<path fill="#FBFBFB" opacity="1.000000" stroke="none" 
	d="
M666.000061,976.327087 
	C666.000000,978.724365 666.000000,980.670288 666.000000,982.917236 
	C660.854614,982.917236 656.085815,982.917236 651.255432,982.917236 
	C653.141663,991.592102 656.197815,992.849854 663.249268,987.892395 
	C664.143677,988.746216 665.076355,989.636475 666.711609,991.197449 
	C664.509338,992.579529 662.725647,994.444397 660.643921,994.877930 
	C651.012756,996.883545 646.004272,992.571167 646.000244,982.706116 
	C645.999512,980.879761 645.878479,979.043823 646.021973,977.228760 
	C646.657227,969.196106 652.744873,964.826782 660.321289,967.175537 
	C664.402649,968.440735 665.568848,972.016113 666.000061,976.327087 
M660.072083,978.971497 
	C659.648499,976.754517 659.471863,974.441101 658.664490,972.374023 
	C658.389832,971.670837 655.789368,970.980591 655.509155,971.320618 
	C653.739136,973.468628 652.322510,975.907837 650.300171,978.998108 
	C654.248901,978.998108 656.719055,978.998108 660.072083,978.971497 
z"/>
<path fill="#FBFBFB" opacity="1.000000" stroke="none" 
	d="
M635.584106,994.999390 
	C630.254456,995.283997 624.930115,995.338501 623.166443,989.795105 
	C620.973572,982.902588 620.448059,975.546265 625.310059,969.360840 
	C628.235657,965.638855 633.192688,966.042603 636.689697,967.614746 
	C639.134949,968.713989 640.710266,972.545715 641.849670,975.477356 
	C642.632080,977.490479 641.999756,980.053284 641.999756,982.851440 
	C637.013489,982.851440 632.130188,982.851440 627.128662,982.851440 
	C629.400879,991.564331 632.160278,992.653931 639.603577,987.765991 
	C640.315796,988.737610 641.089294,989.792786 642.458191,991.660156 
	C640.314453,992.771301 638.165649,993.885071 635.584106,994.999390 
M635.984985,973.848877 
	C634.446594,972.977783 631.806396,971.108704 631.546570,971.395569 
	C629.698181,973.436707 628.336060,975.918335 626.439148,978.846191 
	C630.777283,978.846191 633.726562,978.846191 637.242859,978.846191 
	C636.828186,977.266968 636.485779,975.962830 635.984985,973.848877 
z"/>
<path fill="#FBFBFB" opacity="1.000000" stroke="none" 
	d="
M374.171173,967.000061 
	C381.858551,965.683838 386.065247,970.539368 384.697235,982.867188 
	C380.003052,982.867188 375.246033,982.867188 368.677155,982.867188 
	C370.596436,985.929443 371.469513,989.098022 373.252350,989.739990 
	C375.763306,990.644165 378.948639,989.675781 381.845612,989.508057 
	C381.895782,988.937317 381.945953,988.366638 381.996124,987.795898 
	C383.039215,988.747925 384.082306,989.699951 385.836517,991.301025 
	C383.410583,992.701111 381.530609,994.554810 379.419220,994.872986 
	C369.707855,996.336182 364.268250,992.820190 364.968811,982.608337 
	C365.298096,977.807922 363.962402,972.552612 368.599548,969.046448 
	C370.017487,967.974304 372.009094,967.660889 374.171173,967.000061 
M376.024750,971.533325 
	C370.477814,970.833557 371.007263,975.257874 369.802795,978.618164 
	C373.406158,978.618164 376.662231,978.618164 381.234955,978.618164 
	C379.331421,975.837158 378.007996,973.903625 376.024750,971.533325 
z"/>
<path fill="#FBFBFB" opacity="1.000000" stroke="none" 
	d="
M776.002869,980.885315 
	C776.001953,982.693359 775.667297,984.137939 776.077087,985.325745 
	C776.718567,987.184937 777.999023,990.420898 778.770813,990.353333 
	C781.659546,990.100708 784.293579,988.910217 784.077698,984.843323 
	C783.771301,979.070312 783.999878,973.268860 783.999878,967.242920 
	C785.695251,967.242920 787.096191,967.242920 788.750366,967.242920 
	C788.750366,975.956055 788.750366,984.693298 788.750366,993.502197 
	C786.451416,993.989990 784.132446,994.544067 781.789856,994.967712 
	C774.135681,996.351562 770.513672,993.422607 770.007874,985.480957 
	C769.955139,984.653381 770.000366,983.819580 770.000366,982.988708 
	C770.000305,977.855591 770.000366,972.722412 770.000366,967.222351 
	C771.933472,967.129028 773.672180,967.045105 776.002869,966.932617 
	C776.002869,971.549255 776.002869,975.978027 776.002869,980.885315 
z"/>
<path fill="#FBFBFB" opacity="1.000000" stroke="none" 
	d="
M610.997253,978.267029 
	C611.239624,974.900085 611.166382,971.326172 607.637085,971.412170 
	C604.281128,971.493896 602.890625,974.714966 602.970032,978.238281 
	C603.085388,983.353882 602.999634,988.474060 602.999634,993.791138 
	C601.248840,993.791138 599.848999,993.791138 598.223694,993.791138 
	C598.223694,984.968994 598.223694,976.227417 598.223694,967.001892 
	C602.463318,967.001892 606.686951,966.973022 610.910034,967.009399 
	C615.848022,967.051941 616.510742,971.291199 616.807434,974.418640 
	C617.412537,980.797058 616.988586,987.273193 616.988586,993.849487 
	C614.929016,993.849487 613.304749,993.849487 610.997192,993.849487 
	C610.997192,988.882568 610.997192,983.807251 610.997253,978.267029 
z"/>
<path fill="#FBFBFB" opacity="1.000000" stroke="none" 
	d="
M811.021240,975.997253 
	C809.732361,975.555847 808.796936,975.211731 808.020386,974.648499 
	C806.471924,973.525635 805.093689,972.129761 803.436646,971.230896 
	C803.141296,971.070618 800.989563,973.263123 801.141296,973.522400 
	C802.094604,975.150452 803.253357,976.802734 804.731934,977.945007 
	C806.994019,979.692566 810.204468,980.554626 811.819519,982.693359 
	C813.203064,984.525696 813.662415,987.777466 813.177734,990.121887 
	C812.526611,993.271606 810.123169,994.992371 806.330200,995.113037 
	C799.071716,995.343933 796.202759,994.651428 794.298157,986.137085 
	C795.963440,986.137085 797.598877,986.137085 799.290710,986.137085 
	C799.917419,987.264526 800.399963,989.309753 801.300049,989.513916 
	C803.365967,989.982483 805.635437,989.553711 807.822266,989.489136 
	C807.033386,987.687622 806.681580,985.394592 805.346497,984.207275 
	C803.621216,982.672913 800.562805,982.515625 799.075806,980.866333 
	C797.197083,978.782410 795.204895,975.756592 795.287231,973.202393 
	C795.400574,969.686523 798.307251,967.310669 802.246338,966.993286 
	C809.881409,966.378113 813.668396,969.018921 812.930054,974.590698 
	C812.860535,975.115234 811.960754,975.529846 811.021240,975.997253 
z"/>
<path fill="#FBFBFB" opacity="1.000000" stroke="none" 
	d="
M472.629028,971.240356 
	C470.872894,972.139771 469.441681,973.241943 468.010468,974.344116 
	C469.341583,975.562744 470.499756,977.096252 472.036591,977.940308 
	C476.477844,980.379456 482.083496,981.583557 481.040924,988.694580 
	C480.458710,992.665649 478.538422,994.787354 474.454529,995.017761 
	C465.660187,995.513733 462.523590,993.413086 462.070099,986.406738 
	C465.052521,985.421204 467.262421,985.741943 468.786041,989.072632 
	C469.215637,990.011780 471.500427,990.663025 472.796265,990.478210 
	C473.956177,990.312805 474.926056,988.814514 475.979797,987.904236 
	C475.008148,986.786560 474.214508,985.400452 473.024902,984.611450 
	C471.027557,983.286743 468.845154,982.176941 466.619812,981.274658 
	C462.929382,979.778198 462.390259,976.544189 463.184296,973.608948 
	C463.832397,971.213318 465.641174,968.265503 467.739227,967.287903 
	C474.510651,964.132874 480.398499,968.038452 480.941528,975.432556 
	C476.368561,977.931580 475.417480,973.171814 472.629028,971.240356 
z"/>
<path fill="#FBFBFB" opacity="1.000000" stroke="none" 
	d="
M697.693481,992.197266 
	C696.810120,990.148315 696.223267,988.380493 695.636414,986.612671 
	C696.107849,986.158020 696.579346,985.703369 697.050781,985.248718 
	C698.691589,986.409119 700.283264,987.648987 701.988831,988.704712 
	C703.364502,989.556213 704.864441,990.695679 706.334290,990.733398 
	C707.308167,990.758423 709.112610,989.076782 709.128418,988.135498 
	C709.148682,986.921204 707.980591,985.407898 706.910461,984.524902 
	C705.575012,983.422913 703.901062,982.510132 702.228027,982.078735 
	C696.609863,980.630066 696.348328,976.400452 697.118286,972.024719 
	C697.665955,968.912231 699.957520,967.168762 703.380676,966.965393 
	C710.388672,966.548950 712.369690,967.504639 714.165161,972.618713 
	C714.476562,973.505737 714.833862,974.376587 715.373718,975.787415 
	C713.210388,975.887573 711.475586,975.967957 709.818481,976.044678 
	C708.950562,974.553894 708.462769,972.590637 707.310547,972.054016 
	C706.161377,971.518860 704.346191,972.413635 702.822998,972.681519 
	C703.180298,974.117310 703.066772,976.169373 703.985046,976.870728 
	C706.514587,978.802795 709.502686,980.125000 712.259949,981.771240 
	C715.588074,983.758301 715.830017,987.292969 714.737610,990.084473 
	C713.594543,993.005188 711.111328,995.806335 707.111694,994.962036 
	C704.033569,994.312195 701.027954,993.318909 697.693481,992.197266 
z"/>
<path fill="#FBFBFB" opacity="1.000000" stroke="none" 
	d="
M443.000153,984.461914 
	C443.935486,987.131287 443.632599,990.477600 447.462402,990.164124 
	C451.706299,989.816711 451.991364,986.673401 451.997375,983.418274 
	C452.007172,978.121582 452.000031,972.824829 452.000031,967.266602 
	C453.654053,967.266602 455.048920,967.266602 456.733307,967.266602 
	C456.733307,975.911011 456.733307,984.650879 456.733307,993.641785 
	C453.335510,994.085693 449.837250,994.551025 446.336670,994.997986 
	C441.383240,995.630554 438.609406,993.667908 438.115204,987.351318 
	C437.600128,980.768127 438.000244,974.113281 438.000244,967.247559 
	C439.688904,967.247559 441.090240,967.247559 442.999878,967.247559 
	C442.999878,972.811768 442.999878,978.415527 443.000153,984.461914 
z"/>
<path fill="#FBFBFB" opacity="1.000000" stroke="none" 
	d="
M842.188965,971.688293 
	C840.856445,971.498657 839.291199,971.191772 838.822388,971.771423 
	C837.328857,973.618408 835.258606,975.771118 835.207947,977.849426 
	C835.107239,981.980896 833.276062,986.766724 837.971558,990.036560 
	C841.259094,992.325989 843.520020,990.039124 844.298218,987.920776 
	C845.469360,984.732849 847.040649,984.455872 849.672424,985.328369 
	C849.858154,990.923035 846.906738,994.755066 842.235962,994.999817 
	C834.867615,995.385925 830.259583,992.174133 830.024536,986.346802 
	C829.890564,983.024597 829.955811,979.691895 830.009827,976.365234 
	C830.101196,970.732239 833.910095,967.014099 839.526367,967.000183 
	C847.117432,966.981384 849.613770,969.285950 849.834656,976.516907 
	C844.855591,979.098328 844.672668,973.887268 842.188965,971.688293 
z"/>
<path fill="#FBFBFB" opacity="1.000000" stroke="none" 
	d="
M403.033997,974.183228 
	C401.552307,972.869263 399.637146,970.874146 398.801208,971.253967 
	C396.951233,972.094727 394.705933,973.926147 394.317749,975.720398 
	C393.596375,979.054749 393.521820,982.782959 394.291107,986.088074 
	C394.731873,987.981628 397.131256,989.994629 399.103333,990.722351 
	C400.145142,991.106812 403.311066,989.038940 403.519531,987.754028 
	C404.127594,984.006592 406.358002,985.017212 408.881470,985.186646 
	C409.484406,989.860291 406.854034,992.895752 403.344147,994.748779 
	C399.430176,996.815063 391.289703,994.573669 390.542542,990.615662 
	C389.372009,984.414917 389.327118,977.664673 390.514038,971.474731 
	C391.303101,967.359863 398.425659,965.564758 403.295776,967.166565 
	C407.598175,968.581665 408.603302,972.351196 408.270294,977.634644 
	C406.543579,976.616272 404.816864,975.597900 403.033997,974.183228 
z"/>
<path fill="#FBFBFB" opacity="1.000000" stroke="none" 
	d="
M551.200439,955.951538 
	C553.825500,955.466980 556.030457,955.054260 558.719421,954.551025 
	C558.847839,956.613525 558.944397,958.163513 559.043762,959.759033 
	C554.005554,959.316528 553.104675,960.356262 553.058533,966.625732 
	C554.560303,966.834106 556.106323,967.048645 557.815063,967.285767 
	C557.815063,968.451660 557.815063,969.529175 557.815063,970.958008 
	C556.241211,970.958008 554.821838,970.958008 553.024963,970.958008 
	C553.024963,978.729187 553.024963,986.162842 553.024963,993.792175 
	C551.244080,993.792175 549.841553,993.792175 548.187378,993.792175 
	C548.187378,986.414307 548.187378,979.125366 548.187378,972.632812 
	C546.436462,971.062378 545.221130,969.972351 544.005859,968.882324 
	C545.208069,967.954224 546.410278,967.026123 546.471558,966.978821 
	C548.166138,962.670166 549.473206,959.346741 551.200439,955.951538 
z"/>
<path fill="#FCFCFC" opacity="1.000000" stroke="none" 
	d="
M521.997925,986.924561 
	C521.997925,976.502380 521.997925,966.572571 521.997925,956.239868 
	C523.879211,956.133179 525.615356,956.034668 527.680786,955.917542 
	C527.680786,968.565063 527.680786,981.058350 527.680786,993.776550 
	C525.944458,993.776550 524.211792,993.776550 521.997925,993.776550 
	C521.997925,991.632385 521.997925,989.524658 521.997925,986.924561 
z"/>
<path fill="#FCFCFC" opacity="1.000000" stroke="none" 
	d="
M539.999512,980.002930 
	C539.999512,984.786072 539.999512,989.072144 539.999512,993.757629 
	C538.119812,993.866150 536.386963,993.966248 534.320679,994.085571 
	C534.320679,985.107056 534.320679,976.280151 534.320679,967.225464 
	C536.050720,967.225464 537.780273,967.225464 539.999512,967.225464 
	C539.999512,971.326538 539.999512,975.416199 539.999512,980.002930 
z"/>
<path fill="#FCFCFC" opacity="1.000000" stroke="none" 
	d="
M819.000488,985.941895 
	C819.000488,979.511841 819.000488,973.571899 819.000488,967.242676 
	C820.891479,967.134216 822.626221,967.034729 824.686707,966.916626 
	C824.686707,975.899658 824.686707,984.731445 824.686707,993.782654 
	C822.935242,993.782654 821.205688,993.782654 819.000488,993.782654 
	C819.000488,991.301453 819.000488,988.866760 819.000488,985.941895 
z"/>
<path fill="#FBFBFB" opacity="1.000000" stroke="none" 
	d="
M860.574097,993.694946 
	C858.604675,993.957703 856.995544,993.957703 855.386475,993.957703 
	C854.983398,993.576843 854.580322,993.195923 854.177246,992.815063 
	C855.465149,991.211243 856.602966,988.418213 858.069946,988.232971 
	C862.021851,987.734070 860.796021,991.182312 860.574097,993.694946 
z"/>
<path fill="#FBFBFB" opacity="1.000000" stroke="none" 
	d="
M822.607666,961.988342 
	C821.124573,961.275269 819.361694,960.694031 819.179565,959.793213 
	C818.955322,958.684204 820.048523,957.308777 820.572266,956.048462 
	C821.816528,956.634460 823.821838,956.972778 824.113525,957.868835 
	C824.482056,959.001099 823.454346,960.587769 822.607666,961.988342 
z"/>
<path fill="#FBFBFB" opacity="1.000000" stroke="none" 
	d="
M537.250916,956.016602 
	C538.712158,957.622742 539.764099,959.239746 540.816040,960.856750 
	C540.408691,961.347656 540.001404,961.838501 539.594055,962.329346 
	C537.789368,961.754272 535.984619,961.179138 534.179932,960.604004 
	C535.067139,959.078491 535.954346,957.553040 537.250916,956.016602 
z"/>
<path fill="#000000" opacity="1.000000" stroke="none" 
	d="
M418.479797,858.993286 
	C413.562958,859.447998 409.065216,859.896667 404.257477,860.376282 
	C404.257477,850.363342 404.257477,840.985535 404.257477,831.015869 
	C408.417816,831.015869 412.725189,830.544922 416.887726,831.120789 
	C424.013184,832.106506 428.477600,841.587769 425.421722,849.874878 
	C424.175537,853.254517 421.127319,855.969727 418.479797,858.993286 
z"/>
<path fill="#000000" opacity="1.000000" stroke="none" 
	d="
M718.000000,863.363342 
	C717.908142,857.929443 720.538391,855.650330 725.300964,854.852844 
	C730.079346,854.052734 734.133301,856.240356 734.421936,860.186401 
	C735.191833,870.712402 735.062256,881.369873 734.214661,891.888367 
	C734.061035,893.793762 728.911194,896.414185 725.875122,896.707275 
	C721.337708,897.145264 718.078796,893.442200 718.030212,889.309509 
	C717.930420,880.813782 718.000061,872.316101 718.000000,863.363342 
z"/>
<path fill="#000000" opacity="1.000000" stroke="none" 
	d="
M800.755737,868.998413 
	C795.329346,868.999878 790.377502,868.999878 784.220886,868.999878 
	C785.747864,864.638855 786.592651,860.597839 788.540283,857.186401 
	C790.060425,854.523804 793.015930,853.890076 796.497070,854.723328 
	C801.102051,855.825806 802.096069,859.383118 802.823547,862.859863 
	C803.211365,864.713318 801.819031,866.939209 800.755737,868.998413 
z"/>
<path fill="#000000" opacity="1.000000" stroke="none" 
	d="
M480.728943,856.756409 
	C483.958893,853.550293 487.744843,853.362122 490.664429,855.449402 
	C495.007568,858.554504 495.654053,863.500671 494.724518,868.802429 
	C488.892395,868.802429 483.139099,868.802429 476.244690,868.802429 
	C477.744415,864.601440 479.095062,860.818115 480.728943,856.756409 
z"/>
<path fill="#000000" opacity="1.000000" stroke="none" 
	d="
M614.049866,854.021301 
	C621.040100,856.757568 623.233337,860.611267 622.740234,868.800171 
	C617.019287,868.800171 611.284363,868.800171 605.554871,868.800171 
	C604.178589,860.600098 606.037292,857.225952 614.049866,854.021301 
z"/>
<path fill="#000000" opacity="1.000000" stroke="none" 
	d="
M343.999390,980.182983 
	C344.746094,978.808472 345.708832,977.026428 346.203278,977.148010 
	C348.855133,977.800354 352.574158,978.179077 353.743225,980.030151 
	C357.205353,985.511353 352.721130,990.117493 343.999298,989.903625 
	C343.999298,986.837402 343.999298,983.745667 343.999390,980.182983 
z"/>
<path fill="#000000" opacity="1.000000" stroke="none" 
	d="
M350.041931,962.539917 
	C351.530182,964.669128 354.059052,966.843811 353.685822,968.245850 
	C352.507355,972.672729 348.510193,973.208191 344.228516,972.923706 
	C344.228516,969.319214 344.228516,965.772217 344.228516,961.959290 
	C346.211304,962.057068 347.982880,962.144409 350.041931,962.539917 
z"/>
<path fill="#000000" opacity="1.000000" stroke="none" 
	d="
M675.999329,985.472290 
	C675.999451,982.035767 675.434021,978.881775 676.197449,976.091431 
	C676.713928,974.203979 679.100708,972.828186 680.650879,971.223511 
	C682.099915,972.796814 684.354675,974.168091 684.811462,975.990112 
	C685.518860,978.812073 684.990662,981.941711 685.002625,984.940796 
	C685.012878,987.491089 684.772461,989.764526 681.481689,990.202881 
	C678.080811,990.655823 676.548279,988.972168 675.999329,985.472290 
z"/>
<path fill="#000000" opacity="1.000000" stroke="none" 
	d="
M568.068359,973.439514 
	C569.853638,972.555054 572.314392,971.111511 572.746155,971.571655 
	C574.448669,973.386108 575.513916,975.798401 577.299988,978.803955 
	C573.013245,978.803955 570.231506,978.803955 566.790283,978.803955 
	C567.151672,977.017212 567.481567,975.386230 568.068359,973.439514 
z"/>
<path fill="#000000" opacity="1.000000" stroke="none" 
	d="
M426.969666,983.070435 
	C426.116302,985.624207 425.787323,988.548157 424.199677,989.637268 
	C422.651794,990.699097 418.767120,991.128052 418.553314,987.728577 
	C418.438782,985.908020 420.630829,983.560913 422.359497,982.168518 
	C423.209808,981.483643 425.373749,982.429626 426.969666,983.070435 
z"/>
<path fill="#000000" opacity="1.000000" stroke="none" 
	d="
M498.171692,972.041992 
	C499.194000,974.196411 499.812927,976.286682 500.549988,978.775757 
	C497.107117,978.775757 494.360260,978.775757 491.602692,978.775757 
	C490.743408,973.378296 493.127258,970.729004 498.171692,972.041992 
z"/>
<path fill="#000000" opacity="1.000000" stroke="none" 
	d="
M659.630676,978.984802 
	C656.719055,978.998108 654.248901,978.998108 650.300171,978.998108 
	C652.322510,975.907837 653.739136,973.468628 655.509155,971.320618 
	C655.789368,970.980591 658.389832,971.670837 658.664490,972.374023 
	C659.471863,974.441101 659.648499,976.754517 659.630676,978.984802 
z"/>
<path fill="#000000" opacity="1.000000" stroke="none" 
	d="
M636.064148,974.253784 
	C636.485779,975.962830 636.828186,977.266968 637.242859,978.846191 
	C633.726562,978.846191 630.777283,978.846191 626.439148,978.846191 
	C628.336060,975.918335 629.698181,973.436707 631.546570,971.395569 
	C631.806396,971.108704 634.446594,972.977783 636.064148,974.253784 
z"/>
<path fill="#000000" opacity="1.000000" stroke="none" 
	d="
M376.354675,971.751709 
	C378.007996,973.903625 379.331421,975.837158 381.234955,978.618164 
	C376.662231,978.618164 373.406158,978.618164 369.802795,978.618164 
	C371.007263,975.257874 370.477814,970.833557 376.354675,971.751709 
z"/>
</svg>